<svg xmlns="http://www.w3.org/2000/svg" style="display: none;">
  <defs>
    <!-- Horizontal: प्रोजेक्ट -->
    <symbol id="hindi-profile" width="170" height="900" viewBox="0 0 324 874">

	<g filter="url(#filter0_d_1_4)">
<path d="M42.5477 696.505H180.408L206.095 720.687V827.841C206.095 830.652 208.216 833.979 212.458 837.825C216.7 841.522 221.648 844.776 227.304 847.586C233.117 850.248 238.066 851.58 242.151 851.58C247.807 851.58 252.755 848.917 256.997 843.593L281.27 857.348C278.913 860.158 276.007 862.302 272.551 863.781C269.251 865.26 265.638 866 261.71 866C253.227 866 242.229 862.82 228.718 856.46C215.364 850.248 203.66 842.779 193.605 834.053C183.55 825.327 178.523 817.562 178.523 810.759V769.051C176.48 766.832 174.359 765.131 172.16 763.948C170.118 762.617 168.232 761.951 166.504 761.951C160.22 761.951 155.114 765.131 151.186 771.491C147.416 777.851 145.531 787.834 145.531 801.441L120.079 791.014C120.079 786.873 120.629 781.031 121.729 773.488C119.844 770.53 117.487 768.089 114.659 766.166C111.831 764.244 109.082 763.282 106.411 763.282C102.012 763.282 97.849 764.909 93.9213 768.163C89.9937 771.417 86.8515 775.632 84.495 780.809C82.1384 785.985 80.9601 791.384 80.9601 797.004C80.9601 803.364 83.6309 810.389 88.9725 818.08C94.4712 825.771 101.07 832.278 108.768 837.603C116.623 842.779 123.693 845.368 129.977 845.368C133.276 845.368 136.497 844.702 139.639 843.371C142.938 841.892 145.688 839.969 147.887 837.603L166.504 853.576C163.991 856.091 160.927 858.013 157.314 859.344C153.857 860.676 150.244 861.341 146.473 861.341C134.376 861.341 121.415 856.904 107.59 848.03C93.9213 839.156 82.374 828.211 72.9477 815.196C63.5213 802.18 58.8082 789.905 58.8082 778.368C58.8082 771.861 60.2221 765.723 63.05 759.955C66.035 754.186 69.8841 749.601 74.5973 746.2C79.4676 742.65 84.5735 740.875 89.9151 740.875C95.5709 740.875 101.619 743.02 108.061 747.309C114.659 751.45 120.472 757.071 125.5 764.17C127.699 757.81 131.077 752.634 135.633 748.64C140.189 744.499 144.981 742.428 150.008 742.428C153.622 742.428 157.942 743.685 162.969 746.2C167.997 748.566 173.181 752.042 178.523 756.627V720.687H42.5477V696.505ZM193.841 696.505H232.724V720.687H219.763L193.841 696.505Z" />
</g>
<g filter="url(#filter1_d_1_4)">
<path d="M71.1996 488.518H139.305L164.285 512.7C168.527 517.137 171.826 521.501 174.182 525.79C176.539 530.079 177.717 533.924 177.717 537.326C177.717 540.284 176.225 542.872 173.24 545.091C170.412 547.309 166.877 548.493 162.635 548.64L131.764 549.528C125.323 549.676 119.588 551.525 114.561 555.074C109.691 558.624 107.255 562.617 107.255 567.054C107.255 569.568 108.355 571.787 110.555 573.71C112.754 575.485 115.346 576.372 118.331 576.372C120.531 576.372 122.73 575.854 124.93 574.819C127.129 573.636 129.8 571.861 132.942 569.495C136.87 566.832 140.09 564.836 142.604 563.505C145.118 562.173 147.946 561.508 151.088 561.508C157.686 561.508 164.049 563.726 170.176 568.163C176.46 572.453 181.566 577.777 185.494 584.137C189.422 590.349 191.386 595.969 191.386 600.998C191.386 606.47 189.265 611.646 185.023 616.527C180.781 621.408 174.889 625.623 167.348 629.173C159.964 632.575 151.795 634.793 142.84 635.828C148.496 641.892 154.387 646.625 160.514 650.027C166.798 653.429 172.69 655.13 178.189 655.13C181.802 655.13 185.101 654.538 188.086 653.355C191.228 652.171 193.742 650.471 195.627 648.252L216.13 666.888C214.087 669.106 211.259 670.807 207.646 671.99C204.19 673.173 200.498 673.765 196.57 673.765C186.987 673.765 176.618 670.585 165.463 664.225C154.309 658.014 143.076 648.992 131.764 637.159C123.437 637.159 115.896 635.976 109.141 633.61C102.542 631.095 97.3577 627.916 93.5871 624.07C89.8166 620.077 87.9313 616.01 87.9313 611.868C87.9313 608.615 89.4238 605.878 92.4089 603.66C95.3939 601.293 98.9287 600.11 103.014 600.11C107.412 600.11 112.047 601.367 116.917 603.882C121.945 606.248 126.501 609.576 130.586 613.865C136.556 613.865 142.918 612.46 149.674 609.65C156.429 606.84 162.085 603.364 166.641 599.223C171.355 595.081 173.711 591.088 173.711 587.243C173.711 584.433 172.847 582.14 171.119 580.365C169.391 578.443 167.348 577.481 164.992 577.481C163.421 577.481 160.436 579.034 156.037 582.14C152.109 584.95 148.26 587.243 144.489 589.018C140.876 590.792 137.027 591.68 132.942 591.68C126.658 591.68 119.745 589.535 112.204 585.246C104.82 580.957 98.4574 575.78 93.1158 569.716C87.9313 563.505 85.3391 558.032 85.3391 553.299C85.3391 549.158 86.8316 545.239 89.8166 541.541C92.9587 537.844 96.8864 534.886 101.6 532.667C106.313 530.301 111.104 529.117 115.975 529.117L148.731 528.674C150.931 528.674 152.816 528.156 154.387 527.121C156.115 525.938 156.979 524.459 156.979 522.684C156.979 521.353 156.351 519.726 155.094 517.803C153.994 515.88 152.58 514.179 150.852 512.7H71.1996V488.518ZM152.973 488.518H204.347V512.7H177.953L152.973 488.518Z" />
</g>
<g filter="url(#filter2_d_1_4)">
<path d="M191.33 280.532H219.138L244.825 304.714V411.869C244.825 414.679 246.946 418.006 251.188 421.852C255.43 425.549 260.378 428.803 266.034 431.613C271.847 434.276 276.796 435.607 280.881 435.607C286.536 435.607 291.485 432.945 295.727 427.62L320 441.375C317.643 444.185 314.737 446.33 311.281 447.809C307.981 449.288 304.368 450.027 300.44 450.027C291.014 450.027 279.624 446.773 266.27 440.266C253.073 433.906 241.604 426.363 231.864 417.637C222.123 408.763 217.253 401.146 217.253 394.786V304.714H191.33V280.532ZM232.806 280.532H271.454V304.714H258.257L232.806 280.532Z" />
</g>
<g filter="url(#filter3_d_1_4)">
<path d="M117.823 304.714V334.664C121.28 330.966 125.129 328.082 129.37 326.012C133.769 323.793 138.09 322.684 142.332 322.684C148.616 322.684 155.293 324.829 162.363 329.118C169.432 333.407 175.324 338.805 180.037 345.313C184.75 351.821 187.107 358.106 187.107 364.17C187.107 372.453 183.572 379.996 176.502 386.799C169.59 393.603 160.87 398.188 150.344 400.554L131.963 381.253C142.332 378.591 150.894 374.376 157.65 368.607C164.405 362.691 167.783 356.479 167.783 349.972C167.783 347.31 166.919 345.091 165.191 343.316C163.462 341.541 161.342 340.654 158.828 340.654C153.643 340.654 147.359 343.02 139.975 347.753C132.748 352.338 125.364 358.698 117.823 366.833V411.869C117.823 414.679 119.944 418.006 124.186 421.852C128.585 425.549 133.691 428.803 139.504 431.613C145.474 434.276 150.501 435.607 154.586 435.607C160.242 435.607 165.033 433.018 168.961 427.842L192.998 441.375C187.343 447.143 180.744 450.027 173.203 450.027C163.777 450.027 152.465 446.847 139.268 440.488C126.071 434.276 114.603 426.955 104.862 418.524C95.1214 409.946 90.2511 402.625 90.2511 396.561V380.587C83.9669 386.208 77.5255 389.018 70.9271 389.018C64.3286 389.018 56.7876 386.504 48.3039 381.475C39.9772 376.446 32.8289 370.53 26.8589 363.727C20.8889 356.775 17.9039 350.933 17.9039 346.2V304.714H4V280.532H92.1364L117.823 304.714ZM198.183 304.714H131.256L105.569 280.532H198.183V304.714ZM45.7116 304.714V361.064C45.7116 363.727 46.7328 366.093 48.7752 368.164C50.9746 370.234 53.2527 371.27 55.6093 371.27C60.9509 371.27 66.6067 369.421 72.5767 365.723C78.5467 362.026 84.4382 356.775 90.2511 349.972V304.714H45.7116ZM44.5333 404.769L63.386 422.739L44.5333 440.709L25.4449 422.739L44.5333 404.769Z" />
</g>
<g filter="url(#filter4_d_1_4)">
<path d="M170.388 72.5457H198.196L223.883 96.7276V203.882C223.883 206.692 226.003 210.02 230.245 213.866C234.487 217.563 239.436 220.817 245.092 223.627C250.905 226.289 255.854 227.62 259.938 227.62C265.594 227.62 270.543 224.958 274.785 219.634L299.058 233.389C296.701 236.199 293.795 238.343 290.338 239.822C287.039 241.301 283.426 242.041 279.498 242.041C270.072 242.041 258.681 238.787 245.327 232.279C232.131 225.919 220.662 218.377 210.921 209.65C201.181 200.776 196.31 193.159 196.31 186.8V96.7276H170.388V72.5457ZM211.864 72.5457H250.512V96.7276H237.315L211.864 72.5457ZM97.0981 0C98.8262 2.95803 101.026 5.32445 103.697 7.09927C106.367 8.72618 109.038 9.53964 111.709 9.53964C113.594 9.53964 116.029 9.16989 119.014 8.43038C121.999 7.69087 123.885 7.24717 124.67 7.09927C130.483 5.47235 134.568 4.65889 136.924 4.65889C139.752 4.65889 143.052 5.8421 146.822 8.20853C150.593 10.575 154.442 13.9767 158.369 18.4137L211.157 72.5457H199.138L167.089 42.5956C159.233 34.7568 153.106 30.8375 148.707 30.8375C147.136 30.8375 143.209 31.7249 136.924 33.4997C135.982 33.7955 134.175 34.3131 131.504 35.0526C128.833 35.6442 126.87 35.9401 125.613 35.9401C120.271 35.9401 114.458 33.056 108.174 27.2878C101.733 21.5197 95.6841 13.9027 90.0283 4.43704L97.0981 0Z" />
</g>
<g filter="url(#filter5_d_1_4)">
<path d="M225.488 233.389C219.832 239.157 213.234 242.041 205.693 242.041C196.266 242.041 184.876 238.861 171.522 232.501C158.325 226.289 146.856 218.968 137.116 210.538C127.375 201.959 122.505 194.638 122.505 188.574V171.048C121.72 171.788 120.463 172.897 118.735 174.376L73.488 212.313C69.8746 215.271 66.811 217.415 64.2973 218.746C61.9408 220.077 59.7413 220.743 57.6989 220.743C54.0855 220.743 49.9221 219.338 45.209 216.528C40.4958 213.57 35.6255 209.576 30.5981 204.548L35.3113 198.558C36.2539 199.741 37.5108 200.702 39.0818 201.442C40.6529 202.181 42.224 202.551 43.795 202.551C46.6229 202.551 50.0007 201.146 53.9283 198.336L81.9717 176.594C75.3733 173.784 68.8534 170.013 62.4121 165.28C56.1278 160.547 51.0219 155.666 47.0942 150.638C43.1666 145.461 41.2028 140.95 41.2028 137.105V96.7276H24.9423V72.5457H124.626L150.077 96.7276V203.882C150.077 206.692 152.198 210.02 156.44 213.866C160.839 217.563 166.023 220.817 171.993 223.627C177.963 226.289 182.991 227.62 187.076 227.62C189.746 227.62 192.339 226.955 194.852 225.624C197.366 224.293 199.487 222.37 201.215 219.856L225.488 233.389ZM163.745 96.7276L139.001 72.5457H176.707V96.7276H163.745ZM68.5392 152.634C68.5392 156.036 69.8746 158.92 72.5454 161.287C75.3733 163.653 78.7511 164.836 82.6787 164.836C88.963 164.836 95.6399 162.544 102.71 157.959C109.779 153.226 116.378 146.718 122.505 138.436V96.7276H68.5392V152.634Z" />
</g>
<defs>
<filter id="filter0_d_1_4" x="38.5477" y="696.505" width="246.722" height="177.495" filterUnits="userSpaceOnUse" color-interpolation-filters="sRGB">
<feFlood flood-opacity="0" result="BackgroundImageFix"/>
<feColorMatrix in="SourceAlpha" type="matrix" values="0 0 0 0 0 0 0 0 0 0 0 0 0 0 0 0 0 0 127 0" result="hardAlpha"/>
<feOffset dy="4"/>
<feGaussianBlur stdDeviation="2"/>
<feComposite in2="hardAlpha" operator="out"/>
<feColorMatrix type="matrix" values="0 0 0 0 0 0 0 0 0 0 0 0 0 0 0 0 0 0 0.25 0"/>
<feBlend mode="normal" in2="BackgroundImageFix" result="effect1_dropShadow_1_4"/>
<feBlend mode="normal" in="SourceGraphic" in2="effect1_dropShadow_1_4" result="shape"/>
</filter>
<filter id="filter1_d_1_4" x="67.1996" y="488.518" width="152.93" height="193.247" filterUnits="userSpaceOnUse" color-interpolation-filters="sRGB">
<feFlood flood-opacity="0" result="BackgroundImageFix"/>
<feColorMatrix in="SourceAlpha" type="matrix" values="0 0 0 0 0 0 0 0 0 0 0 0 0 0 0 0 0 0 127 0" result="hardAlpha"/>
<feOffset dy="4"/>
<feGaussianBlur stdDeviation="2"/>
<feComposite in2="hardAlpha" operator="out"/>
<feColorMatrix type="matrix" values="0 0 0 0 0 0 0 0 0 0 0 0 0 0 0 0 0 0 0.25 0"/>
<feBlend mode="normal" in2="BackgroundImageFix" result="effect1_dropShadow_1_4"/>
<feBlend mode="normal" in="SourceGraphic" in2="effect1_dropShadow_1_4" result="shape"/>
</filter>
<filter id="filter2_d_1_4" x="187.33" y="280.532" width="136.67" height="177.495" filterUnits="userSpaceOnUse" color-interpolation-filters="sRGB">
<feFlood flood-opacity="0" result="BackgroundImageFix"/>
<feColorMatrix in="SourceAlpha" type="matrix" values="0 0 0 0 0 0 0 0 0 0 0 0 0 0 0 0 0 0 127 0" result="hardAlpha"/>
<feOffset dy="4"/>
<feGaussianBlur stdDeviation="2"/>
<feComposite in2="hardAlpha" operator="out"/>
<feColorMatrix type="matrix" values="0 0 0 0 0 0 0 0 0 0 0 0 0 0 0 0 0 0 0.25 0"/>
<feBlend mode="normal" in2="BackgroundImageFix" result="effect1_dropShadow_1_4"/>
<feBlend mode="normal" in="SourceGraphic" in2="effect1_dropShadow_1_4" result="shape"/>
</filter>
<filter id="filter3_d_1_4" x="0" y="280.532" width="202.183" height="177.495" filterUnits="userSpaceOnUse" color-interpolation-filters="sRGB">
<feFlood flood-opacity="0" result="BackgroundImageFix"/>
<feColorMatrix in="SourceAlpha" type="matrix" values="0 0 0 0 0 0 0 0 0 0 0 0 0 0 0 0 0 0 127 0" result="hardAlpha"/>
<feOffset dy="4"/>
<feGaussianBlur stdDeviation="2"/>
<feComposite in2="hardAlpha" operator="out"/>
<feColorMatrix type="matrix" values="0 0 0 0 0 0 0 0 0 0 0 0 0 0 0 0 0 0 0.25 0"/>
<feBlend mode="normal" in2="BackgroundImageFix" result="effect1_dropShadow_1_4"/>
<feBlend mode="normal" in="SourceGraphic" in2="effect1_dropShadow_1_4" result="shape"/>
</filter>
<filter id="filter4_d_1_4" x="86.0283" y="0" width="217.029" height="250.041" filterUnits="userSpaceOnUse" color-interpolation-filters="sRGB">
<feFlood flood-opacity="0" result="BackgroundImageFix"/>
<feColorMatrix in="SourceAlpha" type="matrix" values="0 0 0 0 0 0 0 0 0 0 0 0 0 0 0 0 0 0 127 0" result="hardAlpha"/>
<feOffset dy="4"/>
<feGaussianBlur stdDeviation="2"/>
<feComposite in2="hardAlpha" operator="out"/>
<feColorMatrix type="matrix" values="0 0 0 0 0 0 0 0 0 0 0 0 0 0 0 0 0 0 0.25 0"/>
<feBlend mode="normal" in2="BackgroundImageFix" result="effect1_dropShadow_1_4"/>
<feBlend mode="normal" in="SourceGraphic" in2="effect1_dropShadow_1_4" result="shape"/>
</filter>
<filter id="filter5_d_1_4" x="20.9423" y="72.5457" width="208.546" height="177.495" filterUnits="userSpaceOnUse" color-interpolation-filters="sRGB">
<feFlood flood-opacity="0" result="BackgroundImageFix"/>
<feColorMatrix in="SourceAlpha" type="matrix" values="0 0 0 0 0 0 0 0 0 0 0 0 0 0 0 0 0 0 127 0" result="hardAlpha"/>
<feOffset dy="4"/>
<feGaussianBlur stdDeviation="2"/>
<feComposite in2="hardAlpha" operator="out"/>
<feColorMatrix type="matrix" values="0 0 0 0 0 0 0 0 0 0 0 0 0 0 0 0 0 0 0.25 0"/>
<feBlend mode="normal" in2="BackgroundImageFix" result="effect1_dropShadow_1_4"/>
<feBlend mode="normal" in="SourceGraphic" in2="effect1_dropShadow_1_4" result="shape"/>
</filter>
</defs>
       


    </symbol>

    <!-- Vertical: प्रोफाइल -->
   <symbol id="hindi-project" width="550" height="" viewBox="0 0 1161 411" >
     <path d="M921.15 121.185H1059.15L1088.78 152.06C1097.71 161.837 1104.61 172.386 1109.48 183.706C1114.62 195.027 1117.19 205.448 1117.19 214.967C1117.19 223.458 1114.21 230.148 1108.26 235.036C1102.31 239.667 1094.87 243.141 1085.94 245.457C1077.01 247.772 1064.83 250.088 1049.41 252.403C1031.82 255.234 1017.75 258.064 1007.2 260.894C996.644 263.724 987.714 268.484 980.408 275.174C973.103 281.606 969.45 290.74 969.45 302.575C969.45 312.61 973.238 322.515 980.814 332.293C988.391 341.812 998.132 349.66 1010.04 355.835C1021.94 361.752 1034.12 364.711 1046.57 364.711C1060.91 364.711 1074.98 361.624 1088.78 355.449C1102.58 349.017 1114.08 340.269 1123.28 329.205L1150.06 352.747C1140.32 363.554 1128.28 372.044 1113.94 378.219C1099.87 384.137 1084.99 387.096 1069.3 387.096C1049.54 387.096 1030.06 382.079 1010.85 372.044C991.908 362.01 976.35 348.759 964.173 332.293C952.268 315.826 946.315 298.459 946.315 280.191C946.315 265.525 950.509 254.204 958.897 246.228C967.556 238.252 977.703 232.721 989.338 229.633C1001.24 226.546 1016.67 223.715 1035.61 221.142C1048.87 219.599 1059.28 218.055 1066.86 216.511C1074.44 214.71 1080.66 212.137 1085.53 208.792C1090.67 205.19 1093.24 200.302 1093.24 194.127C1093.24 186.923 1091.21 179.718 1087.15 172.514C1083.1 165.053 1077.41 158.235 1070.11 152.06H921.15V121.185ZM1077.41 121.185H1160.21V152.06H1106.64L1077.41 121.185Z" />
<path d="M668.666 121.185H814.376L846.846 152.06V215.353C864.434 197.343 880.399 188.338 894.74 188.338C901.504 188.338 908.675 190.396 916.251 194.513C924.098 198.372 931.269 203.775 937.763 210.722L928.428 219.985C924.098 215.096 918.957 212.652 913.004 212.652C903.263 212.652 892.711 216.768 881.346 225.002C869.981 232.978 858.482 244.17 846.846 258.578V344.257C846.846 349.917 851.176 356.607 859.834 364.325C868.764 371.787 879.181 378.348 891.087 384.008C902.993 389.411 913.004 392.113 921.122 392.113C929.239 392.113 936.275 388.254 942.227 380.535L972.262 398.674C964.415 406.65 955.757 410.638 946.286 410.638C931.945 410.638 914.087 405.749 892.71 395.972C871.334 386.195 852.664 374.36 836.699 360.466C821.006 346.572 813.159 334.094 813.159 323.03V282.893C806.394 289.582 799.088 294.728 791.241 298.33C783.394 301.932 775.412 303.733 767.295 303.733C756.201 303.733 744.565 300.388 732.389 293.699C720.213 286.752 710.066 278.133 701.948 267.841C694.101 257.292 690.178 247 690.178 236.966C690.178 229.247 693.29 221.786 699.513 214.581C705.736 207.377 713.719 201.588 723.46 197.214C733.471 192.84 743.483 190.653 753.495 190.653H775.412C778.659 190.653 782.447 192.197 786.777 195.285C791.106 198.372 796.518 202.875 803.012 208.792L800.171 215.739C792.324 213.166 786.641 211.88 783.124 211.88C772.03 211.88 761.342 214.067 751.059 218.441C740.777 222.558 732.389 228.089 725.895 235.036C719.401 241.726 716.154 248.801 716.154 256.263C716.154 262.438 718.995 267.841 724.677 272.472C730.63 277.103 737.666 279.419 745.783 279.419C757.418 279.419 769.189 276.332 781.094 270.157C793 263.724 803.688 254.719 813.159 243.141V152.06H668.666V121.185ZM833.452 121.185H932.081V152.06H865.923L833.452 121.185Z"/>
<path d="M434.957 0C438.475 6.17501 442.534 11.1922 447.134 15.0516C451.734 18.6537 456.063 20.4547 460.122 20.4547C463.91 20.4547 467.563 19.9401 471.08 18.9109C474.327 17.6245 478.386 15.9521 483.257 13.8937C491.374 10.0344 497.733 8.10468 502.333 8.10468C507.745 8.10468 513.968 10.549 521.003 15.4375C528.039 20.326 535.344 27.1443 542.921 35.8922L615.979 121.185H600.555L553.068 69.0829C537.915 51.3297 526.28 42.4532 518.162 42.4532C514.374 42.4532 508.015 44.1256 499.086 47.4704C489.345 50.5579 483.257 52.1016 480.821 52.1016C473.245 52.1016 464.722 48.2422 455.251 40.5235C445.51 32.5474 435.634 21.7412 425.622 8.10468L434.957 0Z" />
<path d="M630.809 152.06V344.257C630.809 349.917 635.138 356.607 643.797 364.325C652.726 371.787 663.144 378.348 675.049 384.008C686.955 389.411 696.967 392.113 705.084 392.113C711.578 392.113 718.478 388.254 725.784 380.535L755.819 398.674C747.431 406.65 738.772 410.638 729.843 410.638C714.42 410.638 696.155 405.492 675.049 395.2C653.944 385.166 635.679 373.202 620.256 359.308C605.103 345.157 597.527 333.064 597.527 323.03V223.458H513.916C510.669 223.458 507.693 224.487 504.987 226.546C502.552 228.604 501.334 230.92 501.334 233.492C501.334 235.294 502.687 237.352 505.393 239.667C508.369 241.726 512.834 244.685 518.787 248.544C531.504 256.52 541.651 264.11 549.228 271.314C556.804 278.519 560.592 287.138 560.592 297.172C560.592 305.148 558.157 312.481 553.286 319.171C548.416 325.603 541.787 330.877 533.398 334.994C525.01 338.854 515.81 340.783 505.799 340.783C487.94 340.783 470.217 335.766 452.629 325.732C435.041 315.44 418.941 301.16 404.33 282.893C389.718 264.367 377.812 243.141 368.612 219.213L384.847 213.81C390.53 231.048 398.377 247.258 408.388 262.438C418.671 277.618 430.306 289.839 443.294 299.102C456.282 308.364 469.811 312.996 483.881 312.996C495.787 312.996 506.069 309.78 514.728 303.347C523.387 296.658 527.716 288.424 527.716 278.647C527.716 273.759 525.552 269.513 521.222 265.911C516.893 262.309 509.993 257.678 500.522 252.017C489.428 245.842 481.04 240.311 475.358 235.422C469.946 230.276 467.241 224.101 467.241 216.897C467.241 211.237 470.217 206.348 476.17 202.231C482.123 198.115 489.023 196.056 496.87 196.056H597.527V152.06H351.971V121.185H598.339L630.809 152.06ZM679.92 152.06H649.479L617.009 121.185H679.92V152.06Z" />
<path d="M235.837 121.185H283.73L316.2 152.06V344.257C316.2 349.917 320.53 356.607 329.188 364.325C337.847 371.787 347.994 378.348 359.629 384.008C371.535 389.411 381.547 392.113 389.664 392.113C393.452 392.113 397.24 391.084 401.029 389.025C405.087 386.967 408.47 384.137 411.176 380.535L440.805 398.674C433.228 406.65 424.705 410.638 415.234 410.638C399.54 410.638 381.141 405.492 360.035 395.2C339.2 384.909 321.071 372.816 305.648 358.922C290.495 344.771 282.918 332.55 282.918 322.258V152.06H235.837V121.185ZM302.401 121.185H363.282V152.06H334.465L302.401 121.185ZM119.756 0C123.274 6.175 127.332 11.1922 131.932 15.0516C136.532 18.6537 140.862 20.4547 144.92 20.4547C148.708 20.4547 152.361 19.9401 155.879 18.9109C159.126 17.6245 163.185 15.9521 168.055 13.8937C176.173 10.0344 182.532 8.10468 187.132 8.10468C192.543 8.10468 198.767 10.549 205.802 15.4375C212.837 20.326 220.143 27.1443 227.719 35.8922L300.777 121.185H285.354L237.866 69.0829C222.713 51.3297 211.078 42.4532 202.961 42.4532C199.173 42.4532 192.814 44.1256 183.884 47.4704C174.143 50.5579 168.055 52.1016 165.62 52.1016C158.044 52.1016 149.52 48.2422 140.05 40.5235C130.309 32.5474 120.432 21.7412 110.421 8.10468L119.756 0Z"/>
<path d="M324.702 398.674C316.313 406.65 307.79 410.638 299.131 410.638C283.437 410.638 265.038 405.492 243.932 395.2C222.826 385.166 204.562 373.202 189.139 359.308C173.986 345.157 166.41 333.064 166.41 323.03V278.647L75.0872 355.063C63.4521 364.84 54.6581 369.729 48.7052 369.729C43.8347 369.729 37.8819 367.799 30.8466 363.94C24.082 360.08 16.9115 354.806 9.33517 348.116L15.4233 339.625C20.2938 343.742 25.1644 345.8 30.0349 345.8C34.0937 345.8 38.8289 343.999 44.2406 340.397L100.657 295.243C89.2929 291.898 78.0637 286.623 66.9697 279.419C56.1463 271.958 47.3523 263.853 40.5877 255.105C33.8231 246.1 30.4408 238.124 30.4408 231.177V152.06H0V121.185H167.221L200.097 152.06V344.257C200.097 349.917 204.427 356.607 213.085 364.325C221.744 371.787 231.891 378.348 243.526 384.008C255.432 389.411 265.444 392.113 273.561 392.113C277.349 392.113 281.137 391.084 284.926 389.025C288.714 387.224 292.096 384.394 295.073 380.535L324.702 398.674ZM218.362 152.06L186.703 121.185H246.773V152.06H218.362ZM63.7227 248.544C63.7227 256.52 67.2403 263.338 74.2755 268.999C81.3107 274.402 89.5635 277.103 99.034 277.103C110.399 277.103 122.034 273.501 133.939 266.297C146.116 258.836 156.939 248.673 166.41 235.808V152.06H63.7227V248.544Z" />

</symbol>
  </defs>
</svg>
